<?xml version="1.0" encoding="iso-8859-1"?>
<!-- Generator: Adobe Illustrator 18.1.1, SVG Export Plug-In . SVG Version: 6.00 Build 0)  -->
<svg version="1.1" id="Capa_1" xmlns="http://www.w3.org/2000/svg" xmlns:xlink="http://www.w3.org/1999/xlink" x="0px" y="0px"
	 viewBox="0 0 32 32" style="enable-background:new 0 0 32 32;" xml:space="preserve">
<g>
	<g>
		<circle style="fill:#010002;" cx="12" cy="4" r="4"/>
		<path style="fill:#010002;" d="M20,14.059C20,12.821,20,12,20,12s0-2-2-2c-1,0-12,0-12,0s-2,0-2,2v14c0,2,2,2,2,2v4h12v-0.059
			C18.329,31.979,18.661,32,19,32c4.971-0.002,8.998-4.029,9-9C27.998,18.366,24.499,14.556,20,14.059z M19,29.883
			c-3.801-0.009-6.876-3.084-6.885-6.883c0.009-3.801,3.084-6.876,6.885-6.885c3.799,0.009,6.874,3.084,6.883,6.885
			C25.874,26.799,22.799,29.874,19,29.883z"/>
		<polygon style="fill:#010002;" points="20.002,22 20.002,18 18,18 18,22 14,22 14,24 18,24 18,28 20.002,28 20.002,24 24,24 
			24,22 		"/>
	</g>
</g>
<g>
</g>
<g>
</g>
<g>
</g>
<g>
</g>
<g>
</g>
<g>
</g>
<g>
</g>
<g>
</g>
<g>
</g>
<g>
</g>
<g>
</g>
<g>
</g>
<g>
</g>
<g>
</g>
<g>
</g>
</svg>
