<?xml version="1.0" encoding="iso-8859-1"?>
<!-- Generator: Adobe Illustrator 18.1.1, SVG Export Plug-In . SVG Version: 6.00 Build 0)  -->
<svg version="1.1" id="Capa_1" xmlns="http://www.w3.org/2000/svg" xmlns:xlink="http://www.w3.org/1999/xlink" x="0px" y="0px"
	 viewBox="0 0 32 32" style="enable-background:new 0 0 32 32;" xml:space="preserve">
<g>
	<g>
		<path style="fill:#010002;" d="M32,22c-0.001-3.121-1.589-5.868-4-7.482V1H4v18h10.522c-0.226,0.639-0.387,1.307-0.464,2H4l-4,8
			h17.35c1.545,1.248,3.51,1.999,5.65,2c2.143-0.001,4.104-0.752,5.648-2H32l-1.234-2.469C31.545,25.2,31.999,23.654,32,22z M6,17V3
			h20v10.523C25.061,13.19,24.055,13,23,13c-3.122,0-5.869,1.588-7.483,4H6z M23,28.883c-3.801-0.009-6.876-3.084-6.885-6.883
			c0.009-3.801,3.084-6.876,6.885-6.885c3.799,0.009,6.874,3.084,6.883,6.885C29.874,25.799,26.799,28.874,23,28.883z"/>
		<polygon style="fill:#010002;" points="25,18 23,20 21,18 19,20 21,22 19,24 21,26 23,24 25,26 27,24 25,22 27,20 		"/>
	</g>
</g>
<g>
</g>
<g>
</g>
<g>
</g>
<g>
</g>
<g>
</g>
<g>
</g>
<g>
</g>
<g>
</g>
<g>
</g>
<g>
</g>
<g>
</g>
<g>
</g>
<g>
</g>
<g>
</g>
<g>
</g>
</svg>
